<?xml version="1.0" encoding="UTF-8"?>
<svg xmlns="http://www.w3.org/2000/svg" xmlns:xlink="http://www.w3.org/1999/xlink" width="3304.81" height="3304.81" viewBox="0 0 3304.81 3304.81">
<defs>
<clipPath id="clip-0">
<path clip-rule="nonzero" d="M 0 0 L 3304.808594 0 L 3304.808594 3304.808594 L 0 3304.808594 Z M 0 0 "/>
</clipPath>
<clipPath id="clip-1">
<path clip-rule="evenodd" d="M 1652.421875 1427.859375 C 1528.601562 1427.859375 1427.878906 1528.601562 1427.878906 1652.421875 C 1427.878906 1776.21875 1528.589844 1876.921875 1652.421875 1876.921875 C 1776.21875 1876.921875 1876.949219 1776.21875 1876.949219 1652.421875 C 1876.949219 1528.601562 1776.21875 1427.859375 1652.421875 1427.859375 Z M 1282.789062 1027.648438 C 1238.578125 1067.910156 1194.988281 1109.488281 1152.25 1152.25 C 1109.238281 1195.261719 1067.539062 1238.898438 1027.300781 1283 C 1034.820312 1205.910156 1044.691406 1130.53125 1056.839844 1057.378906 C 1130.21875 1045.191406 1205.761719 1035.25 1282.789062 1027.648438 Z M 2021.828125 2277.488281 C 2065.929688 2237.261719 2109.550781 2195.570312 2152.578125 2152.578125 C 2195.46875 2109.691406 2237.019531 2066.160156 2277.148438 2022.21875 C 2269.558594 2099.179688 2259.609375 2174.640625 2247.449219 2247.96875 C 2174.300781 2260.109375 2098.921875 2269.980469 2021.828125 2277.488281 Z M 1001.128906 2303.679688 C 1032.898438 2479.078125 1077.671875 2641.320312 1134.300781 2783.441406 C 860.347656 2889.289062 641.125 2886.691406 529.628906 2775.171875 C 418.117188 2663.671875 415.53125 2444.460938 521.394531 2170.519531 C 663.503906 2227.140625 825.71875 2271.929688 1001.128906 2303.679688 Z M 2573.449219 1652.410156 C 2675.050781 1505.898438 2758.101562 1359.53125 2818.53125 1219.011719 C 3087.101562 1337.871094 3240.25 1494.710938 3240.25 1652.410156 C 3240.25 1810.078125 3087.101562 1966.929688 2818.511719 2085.78125 C 2758.070312 1945.261719 2675.050781 1798.890625 2573.449219 1652.410156 Z M 2348.941406 1363.5 C 2341.398438 1262.828125 2329.921875 1164.109375 2314.738281 1068.75 C 2476.949219 1099.390625 2626.980469 1141.480469 2758.988281 1194.039062 C 2702.890625 1324.421875 2626.640625 1460.140625 2533.710938 1596.378906 C 2477.058594 1518.289062 2415.261719 1440.378906 2348.941406 1363.5 Z M 2021.800781 1027.261719 C 2098.890625 1034.789062 2174.269531 1044.671875 2247.421875 1056.800781 C 2259.609375 1130.148438 2269.558594 1205.648438 2277.148438 1282.621094 C 2237.019531 1238.648438 2195.441406 1195.140625 2152.578125 1152.25 C 2109.53125 1109.230469 2065.898438 1067.519531 2021.800781 1027.261719 Z M 1596.78125 771.371094 C 1518.519531 828.148438 1440.511719 889.910156 1363.878906 955.851562 C 1263.089844 963.410156 1164.25 974.890625 1068.78125 990.078125 C 1099.390625 827.859375 1141.480469 677.800781 1194.050781 545.789062 C 1324.550781 601.980469 1460.410156 678.320312 1596.78125 771.371094 Z M 1833.238281 949.179688 C 1773.589844 946.460938 1713.261719 945.078125 1652.421875 945.078125 C 1591.96875 945.078125 1531.730469 946.5 1471.988281 949.28125 C 1531.820312 900.179688 1592.28125 853.789062 1652.800781 810.519531 C 1713.101562 853.648438 1773.410156 899.980469 1833.238281 949.179688 Z M 2494.578125 1652.410156 C 2451.320312 1712.898438 2404.851562 1773.359375 2355.5 1833.371094 C 2358.308594 1773.460938 2359.730469 1713.050781 2359.730469 1652.410156 C 2359.730469 1591.769531 2358.308594 1531.351562 2355.5 1471.441406 C 2404.851562 1531.449219 2451.320312 1591.921875 2494.578125 1652.410156 Z M 2758.988281 2110.761719 C 2626.980469 2163.320312 2476.949219 2205.398438 2314.738281 2236.019531 C 2329.890625 2140.679688 2341.371094 2042 2348.941406 1941.320312 C 2415.261719 1864.449219 2477.03125 1786.519531 2533.710938 1708.429688 C 2626.640625 1844.671875 2702.859375 1980.378906 2758.988281 2110.761719 Z M 1472.121094 2355.660156 C 1531.601562 2358.371094 1591.761719 2359.730469 1652.421875 2359.730469 C 1713.261719 2359.730469 1773.589844 2358.339844 1833.21875 2355.628906 C 1773.378906 2404.828125 1713.101562 2451.140625 1652.800781 2494.289062 C 1592.320312 2451.058594 1531.910156 2404.699219 1472.121094 2355.660156 Z M 1018.441406 1914.640625 C 1075.359375 1980.039062 1135.351562 2044.359375 1197.878906 2106.898438 C 1260.421875 2169.441406 1324.761719 2229.460938 1390.148438 2286.351562 C 1476.011719 2292.179688 1563.660156 2295.171875 1652.421875 2295.171875 C 1741.289062 2295.171875 1829.039062 2292.179688 1915.011719 2286.320312 C 1979.941406 2229.691406 2044.070312 2169.75 2106.929688 2106.929688 C 2169.679688 2044.148438 2229.53125 1980.070312 2286.140625 1915.238281 C 2292.121094 1828.75 2295.199219 1740.839844 2295.199219 1652.410156 C 2295.199219 1563.96875 2292.121094 1476.058594 2286.140625 1389.578125 C 2229.558594 1324.730469 2169.679688 1260.660156 2106.929688 1197.898438 C 2044.070312 1135.039062 1979.878906 1075.089844 1914.949219 1018.441406 C 1829.011719 1012.601562 1741.289062 1009.609375 1652.421875 1009.609375 C 1564.101562 1009.609375 1476.300781 1012.671875 1389.898438 1018.660156 C 1324.589844 1075.511719 1260.339844 1135.441406 1197.878906 1197.878906 C 1135.039062 1260.71875 1075.121094 1324.890625 1018.46875 1389.800781 C 1012.621094 1475.78125 1009.628906 1563.539062 1009.628906 1652.421875 C 1009.628906 1741.160156 1012.609375 1828.78125 1018.441406 1914.640625 Z M 810.523438 1652 C 853.648438 1591.691406 899.980469 1531.398438 949.175781 1471.570312 C 946.460938 1531.21875 945.078125 1591.558594 945.078125 1652.421875 C 945.078125 1713.050781 946.433594 1773.230469 949.152344 1832.660156 C 900.101562 1772.890625 853.753906 1712.46875 810.523438 1652 Z M 955.597656 1940.640625 C 963.070312 2041.871094 974.484375 2140.648438 989.625 2235.941406 C 827.582031 2205.320312 677.699219 2163.238281 545.820312 2110.738281 C 601.988281 1980.25 678.316406 1844.410156 771.375 1708.039062 C 828.066406 1786.199219 889.753906 1864.101562 955.597656 1940.640625 Z M 1283.191406 2277.519531 C 1205.859375 2269.980469 1130.261719 2260.078125 1056.898438 2247.890625 C 1044.71875 2174.53125 1034.800781 2098.941406 1027.261719 2021.589844 C 1067.660156 2065.929688 1109.371094 2109.691406 1152.25 2152.550781 C 1195.128906 2195.441406 1238.839844 2237.148438 1283.191406 2277.519531 Z M 1596.761719 2533.421875 C 1460.390625 2626.480469 1324.550781 2702.839844 1194.050781 2758.988281 C 1141.53125 2627.109375 1099.480469 2477.238281 1068.859375 2315.191406 C 1164.128906 2330.339844 1262.929688 2341.738281 1364.171875 2349.230469 C 1440.710938 2415.050781 1518.609375 2476.738281 1596.761719 2533.421875 Z M 2128.308594 401.898438 C 2184.308594 401.898438 2229.878906 447.460938 2229.851562 503.449219 C 2229.851562 546.660156 2202.738281 583.660156 2164.609375 598.300781 L 2164.449219 598.351562 L 2163.691406 598.648438 L 2163.628906 598.671875 C 2152.628906 602.761719 2140.730469 605.019531 2128.308594 605.019531 C 2072.308594 605.011719 2026.769531 559.449219 2026.769531 503.449219 C 2026.769531 447.460938 2072.308594 401.898438 2128.308594 401.898438 Z M 2292.761719 480.089844 C 2510.261719 418.121094 2681.058594 435.511719 2775.199219 529.628906 C 2886.691406 641.121094 2889.289062 860.351562 2783.421875 1134.300781 C 2641.21875 1077.628906 2478.820312 1032.808594 2303.230469 1001.050781 C 2280.359375 874.488281 2250.808594 754.660156 2215.109375 645.019531 C 2262.648438 615.761719 2294.410156 563.261719 2294.410156 503.449219 C 2294.410156 495.519531 2293.828125 487.71875 2292.761719 480.089844 Z M 1966.78125 542.21875 C 1864.03125 594.488281 1758.441406 658.308594 1652.789062 731.628906 C 1506.171875 629.921875 1359.671875 546.789062 1219.03125 486.289062 C 1337.878906 217.730469 1494.71875 64.550781 1652.421875 64.550781 C 1785.679688 64.550781 1918.53125 172.980469 2028.578125 370.710938 C 1988.289062 401.050781 1962.210938 449.269531 1962.210938 503.449219 C 1962.210938 516.800781 1963.808594 529.78125 1966.78125 542.21875 Z M 2128.308594 669.558594 C 2137.210938 669.558594 2145.980469 668.851562 2154.519531 667.480469 C 2186.828125 767.078125 2213.960938 875.339844 2235.5 989.550781 C 2140.46875 974.441406 2041.96875 963.070312 1941.011719 955.609375 C 1864.371094 889.519531 1786.671875 827.898438 1708.800781 771.390625 C 1804.820312 705.839844 1900.558594 648.449219 1993.851562 600.871094 C 2024.089844 642.449219 2073.070312 669.558594 2128.308594 669.558594 Z M 2128.308594 2701.648438 C 2184.308594 2701.648438 2229.851562 2747.199219 2229.851562 2803.199219 C 2229.851562 2810.261719 2229.140625 2817.140625 2227.769531 2823.789062 C 2224.488281 2827.230469 2221.941406 2831.480469 2220.421875 2836.320312 C 2219.109375 2840.46875 2218.710938 2844.671875 2219.050781 2848.738281 C 2202.320312 2881.941406 2167.941406 2904.761719 2128.308594 2904.761719 C 2113.648438 2904.761719 2099.699219 2901.640625 2087.101562 2896.019531 L 2085.859375 2895.328125 C 2084.679688 2894.699219 2083.449219 2894.148438 2082.238281 2893.710938 C 2049.328125 2876.871094 2026.769531 2842.621094 2026.769531 2803.199219 C 2026.769531 2747.199219 2072.308594 2701.648438 2128.308594 2701.648438 Z M 2214.589844 2661.339844 C 2250.519531 2551.261719 2280.230469 2430.910156 2303.210938 2303.761719 C 2478.820312 2271.980469 2641.191406 2227.199219 2783.421875 2170.519531 C 2889.289062 2444.460938 2886.691406 2663.699219 2775.199219 2775.199219 C 2680.960938 2869.410156 2510.488281 2886.691406 2293.019531 2824.789062 C 2293.941406 2817.71875 2294.410156 2810.519531 2294.410156 2803.199219 C 2294.410156 2743.210938 2262.421875 2690.519531 2214.589844 2661.339844 Z M 1994.851562 2704.441406 C 1901.238281 2656.738281 1805.171875 2599.191406 1708.820312 2533.421875 C 1786.699219 2476.898438 1864.390625 2415.28125 1941.058594 2349.171875 C 2042 2341.710938 2140.488281 2330.339844 2235.5 2315.261719 C 2213.851562 2430.121094 2186.511719 2538.988281 2153.96875 2639.089844 C 2145.589844 2637.78125 2137.03125 2637.121094 2128.308594 2637.121094 C 2073.679688 2637.121094 2025.140625 2663.621094 1994.851562 2704.441406 Z M 2027.839844 2935.390625 C 1917.949219 3132.269531 1785.328125 3240.25 1652.421875 3240.25 C 1494.71875 3240.25 1337.878906 3087.101562 1219.03125 2818.53125 C 1359.671875 2758.050781 1506.171875 2674.890625 1652.800781 2573.191406 C 1758.601562 2646.578125 1864.308594 2710.480469 1967.199219 2762.769531 C 1963.941406 2775.71875 1962.210938 2789.269531 1962.210938 2803.199219 C 1962.210938 2857.070312 1988 2905.03125 2027.839844 2935.390625 Z M 505.554688 1071.800781 C 561.554688 1071.800781 607.097656 1117.371094 607.097656 1173.371094 C 607.097656 1229.359375 561.554688 1274.921875 505.554688 1274.921875 C 449.558594 1274.921875 403.988281 1229.359375 403.988281 1173.371094 C 403.988281 1131.980469 428.875 1096.320312 464.449219 1080.5 C 465.289062 1080.308594 466.132812 1080.101562 466.972656 1079.828125 C 469.308594 1079.109375 471.503906 1078.140625 473.550781 1076.96875 C 483.609375 1073.609375 494.378906 1071.800781 505.554688 1071.800781 Z M 669.925781 1149.480469 C 768.851562 1117.519531 876.277344 1090.660156 989.558594 1069.300781 C 974.472656 1164.328125 963.085938 1262.839844 955.625 1363.789062 C 889.515625 1440.460938 827.898438 1518.148438 771.386719 1596.011719 C 705.566406 1499.589844 647.980469 1403.421875 600.253906 1309.730469 C 643.382812 1279.699219 671.644531 1229.78125 671.644531 1173.371094 C 671.644531 1165.261719 671.054688 1157.289062 669.925781 1149.480469 Z M 479.328125 1009.339844 C 418.277344 793.058594 435.820312 623.421875 529.628906 529.628906 C 641.125 418.121094 860.347656 415.519531 1134.28125 521.371094 C 1077.609375 663.589844 1032.808594 825.980469 1001.058594 1001.578125 C 875.765625 1024.230469 757.074219 1053.410156 648.359375 1088.621094 C 619.375 1039.941406 566.203125 1007.25 505.554688 1007.25 C 496.636719 1007.25 487.878906 1007.988281 479.328125 1009.339844 Z M 345.164062 1216.578125 C 119.21875 1340.601562 0 1490.929688 0 1652.421875 C 0 1839.859375 163.660156 2014.210938 461.824219 2145.558594 C 343.867188 2449.300781 351.429688 2688.28125 483.992188 2820.851562 C 554.210938 2891.050781 654.257812 2926.199219 778.007812 2926.199219 C 887.875 2926.199219 1016.421875 2898.460938 1159.261719 2843.011719 C 1290.609375 3141.148438 1464.949219 3304.808594 1652.421875 3304.808594 C 1812.828125 3304.808594 1962.308594 3187.039062 2085.921875 2963.808594 C 2099.441406 2967.410156 2113.648438 2969.300781 2128.308594 2969.300781 C 2189.769531 2969.300781 2243.53125 2935.761719 2272.269531 2886.011719 C 2365.980469 2913.011719 2451.5 2926.488281 2527.730469 2926.488281 C 2651.328125 2926.460938 2750.558594 2891.109375 2820.851562 2820.851562 C 2953.378906 2688.261719 2960.949219 2449.300781 2842.988281 2145.558594 C 3141.148438 2014.191406 3304.808594 1839.859375 3304.808594 1652.421875 C 3304.808594 1464.949219 3141.148438 1290.601562 2843.011719 1159.25 C 2960.949219 855.53125 2953.378906 616.539062 2820.851562 483.988281 C 2707.199219 370.339844 2517.449219 348.03125 2271.320312 419.101562 C 2242.398438 370.199219 2189.109375 337.351562 2128.308594 337.351562 C 2113.96875 337.351562 2100.070312 339.179688 2086.808594 342.601562 C 1963.050781 118.328125 1813.25 0 1652.421875 0 C 1464.949219 0 1290.609375 163.648438 1159.25 461.808594 C 855.542969 343.871094 616.539062 351.429688 483.992188 483.988281 C 370.511719 597.460938 348.09375 786.539062 418.628906 1031.871094 C 371.15625 1061.148438 339.453125 1113.609375 339.453125 1173.371094 C 339.453125 1188.308594 341.449219 1202.800781 345.164062 1216.578125 Z M 505.554688 1339.46875 C 451.988281 1339.46875 404.261719 1313.980469 373.875 1274.488281 C 174.140625 1384.871094 64.546875 1518.429688 64.546875 1652.410156 C 64.546875 1810.078125 217.726562 1966.910156 486.304688 2085.761719 C 546.804688 1945.128906 629.933594 1798.648438 731.632812 1652.039062 C 657.777344 1545.578125 593.53125 1439.160156 541.027344 1335.628906 C 529.589844 1338.128906 517.714844 1339.46875 505.554688 1339.46875 Z M 1652.421875 1941.480469 C 1493.011719 1941.480469 1363.328125 1811.808594 1363.328125 1652.421875 C 1363.328125 1493 1493 1363.320312 1652.421875 1363.320312 C 1811.808594 1363.320312 1941.480469 1493 1941.480469 1652.421875 C 1941.480469 1811.808594 1811.808594 1941.480469 1652.421875 1941.480469 "/>
</clipPath>
<linearGradient id="linear-pattern-0" gradientUnits="userSpaceOnUse" x1="-0.00169067" y1="0" x2="1.001687" y2="0" gradientTransform="matrix(3554.64, 2982.69, -2982.69, 3554.64, -124.904, 161.06)">
<stop offset="0" stop-color="rgb(34.265137%, 69.436646%, 90.397644%)" stop-opacity="1"/>
<stop offset="0.0078125" stop-color="rgb(34.255981%, 69.500732%, 90.435791%)" stop-opacity="1"/>
<stop offset="0.0117188" stop-color="rgb(34.42688%, 69.67926%, 90.522766%)" stop-opacity="1"/>
<stop offset="0.015625" stop-color="rgb(34.605408%, 69.793701%, 90.571594%)" stop-opacity="1"/>
<stop offset="0.0195312" stop-color="rgb(34.642029%, 69.937134%, 90.652466%)" stop-opacity="1"/>
<stop offset="0.0234375" stop-color="rgb(34.677124%, 70.080566%, 90.731812%)" stop-opacity="1"/>
<stop offset="0.0273438" stop-color="rgb(34.794617%, 70.245361%, 90.817261%)" stop-opacity="1"/>
<stop offset="0.03125" stop-color="rgb(34.910583%, 70.410156%, 90.901184%)" stop-opacity="1"/>
<stop offset="0.0351562" stop-color="rgb(35.099792%, 70.472717%, 90.917969%)" stop-opacity="1"/>
<stop offset="0.0390625" stop-color="rgb(35.287476%, 70.533752%, 90.934753%)" stop-opacity="1"/>
<stop offset="0.046875" stop-color="rgb(35.458374%, 70.701599%, 91.015625%)" stop-opacity="1"/>
<stop offset="0.0546875" stop-color="rgb(35.614014%, 70.986938%, 91.165161%)" stop-opacity="1"/>
<stop offset="0.0585938" stop-color="rgb(35.775757%, 71.272278%, 91.314697%)" stop-opacity="1"/>
<stop offset="0.0625" stop-color="rgb(35.949707%, 71.440125%, 91.394043%)" stop-opacity="1"/>
<stop offset="0.0664062" stop-color="rgb(36.125183%, 71.609497%, 91.473389%)" stop-opacity="1"/>
<stop offset="0.0703125" stop-color="rgb(36.299133%, 71.777344%, 91.55426%)" stop-opacity="1"/>
<stop offset="0.0742188" stop-color="rgb(36.483765%, 71.871948%, 91.589355%)" stop-opacity="1"/>
<stop offset="0.078125" stop-color="rgb(36.668396%, 71.965027%, 91.622925%)" stop-opacity="1"/>
<stop offset="0.0820312" stop-color="rgb(36.842346%, 72.148132%, 91.711426%)" stop-opacity="1"/>
<stop offset="0.0859375" stop-color="rgb(37.014771%, 72.331238%, 91.799927%)" stop-opacity="1"/>
<stop offset="0.0898438" stop-color="rgb(37.188721%, 72.517395%, 91.888428%)" stop-opacity="1"/>
<stop offset="0.09375" stop-color="rgb(37.362671%, 72.7005%, 91.975403%)" stop-opacity="1"/>
<stop offset="0.0976562" stop-color="rgb(37.400818%, 72.848511%, 92.056274%)" stop-opacity="1"/>
<stop offset="0.101562" stop-color="rgb(37.435913%, 72.994995%, 92.137146%)" stop-opacity="1"/>
<stop offset="0.105469" stop-color="rgb(37.591553%, 73.176575%, 92.225647%)" stop-opacity="1"/>
<stop offset="0.109375" stop-color="rgb(37.745667%, 73.355103%, 92.312622%)" stop-opacity="1"/>
<stop offset="0.117188" stop-color="rgb(37.918091%, 73.416138%, 92.327881%)" stop-opacity="1"/>
<stop offset="0.125" stop-color="rgb(38.247681%, 73.64502%, 92.425537%)" stop-opacity="1"/>
<stop offset="0.128906" stop-color="rgb(38.560486%, 73.999023%, 92.59491%)" stop-opacity="1"/>
<stop offset="0.132812" stop-color="rgb(38.713074%, 74.179077%, 92.681885%)" stop-opacity="1"/>
<stop offset="0.140625" stop-color="rgb(38.723755%, 74.290466%, 92.744446%)" stop-opacity="1"/>
<stop offset="0.144531" stop-color="rgb(38.922119%, 74.485779%, 92.834473%)" stop-opacity="1"/>
<stop offset="0.148438" stop-color="rgb(39.109802%, 74.569702%, 92.861938%)" stop-opacity="1"/>
<stop offset="0.152344" stop-color="rgb(39.205933%, 74.736023%, 92.947388%)" stop-opacity="1"/>
<stop offset="0.15625" stop-color="rgb(39.300537%, 74.900818%, 93.031311%)" stop-opacity="1"/>
<stop offset="0.160156" stop-color="rgb(39.36615%, 75.059509%, 93.113708%)" stop-opacity="1"/>
<stop offset="0.164063" stop-color="rgb(39.430237%, 75.216675%, 93.196106%)" stop-opacity="1"/>
<stop offset="0.167969" stop-color="rgb(39.624023%, 75.271606%, 93.206787%)" stop-opacity="1"/>
<stop offset="0.171875" stop-color="rgb(39.814758%, 75.328064%, 93.217468%)" stop-opacity="1"/>
<stop offset="0.175781" stop-color="rgb(39.852905%, 75.4776%, 93.299866%)" stop-opacity="1"/>
<stop offset="0.179688" stop-color="rgb(39.889526%, 75.628662%, 93.380737%)" stop-opacity="1"/>
<stop offset="0.1875" stop-color="rgb(40.060425%, 75.701904%, 93.405151%)" stop-opacity="1"/>
<stop offset="0.195313" stop-color="rgb(40.374756%, 75.946045%, 93.508911%)" stop-opacity="1"/>
<stop offset="0.203125" stop-color="rgb(40.69519%, 76.293945%, 93.670654%)" stop-opacity="1"/>
<stop offset="0.210938" stop-color="rgb(40.859985%, 76.594543%, 93.823242%)" stop-opacity="1"/>
<stop offset="0.214844" stop-color="rgb(41.043091%, 76.789856%, 93.913269%)" stop-opacity="1"/>
<stop offset="0.21875" stop-color="rgb(41.233826%, 76.863098%, 93.933105%)" stop-opacity="1"/>
<stop offset="0.222656" stop-color="rgb(41.412354%, 77.058411%, 94.024658%)" stop-opacity="1"/>
<stop offset="0.226563" stop-color="rgb(41.590881%, 77.250671%, 94.113159%)" stop-opacity="1"/>
<stop offset="0.234375" stop-color="rgb(41.702271%, 77.284241%, 94.119263%)" stop-opacity="1"/>
<stop offset="0.238281" stop-color="rgb(41.972351%, 77.507019%, 94.215393%)" stop-opacity="1"/>
<stop offset="0.242188" stop-color="rgb(42.131042%, 77.694702%, 94.303894%)" stop-opacity="1"/>
<stop offset="0.25" stop-color="rgb(42.227173%, 77.7771%, 94.338989%)" stop-opacity="1"/>
<stop offset="0.253906" stop-color="rgb(42.50946%, 78.004456%, 94.436646%)" stop-opacity="1"/>
<stop offset="0.257812" stop-color="rgb(42.694092%, 78.147888%, 94.496155%)" stop-opacity="1"/>
<stop offset="0.265625" stop-color="rgb(42.694092%, 78.147888%, 94.496155%)" stop-opacity="1"/>
<stop offset="0.269531" stop-color="rgb(42.680359%, 78.286743%, 94.5755%)" stop-opacity="1"/>
<stop offset="0.273438" stop-color="rgb(42.6651%, 78.424072%, 94.65332%)" stop-opacity="1"/>
<stop offset="0.28125" stop-color="rgb(42.6651%, 78.424072%, 94.65332%)" stop-opacity="1"/>
<stop offset="0.3125" stop-color="rgb(42.6651%, 78.424072%, 94.65332%)" stop-opacity="1"/>
<stop offset="0.316406" stop-color="rgb(42.651367%, 78.562927%, 94.732666%)" stop-opacity="1"/>
<stop offset="0.320312" stop-color="rgb(42.637634%, 78.700256%, 94.810486%)" stop-opacity="1"/>
<stop offset="0.328125" stop-color="rgb(42.637634%, 78.700256%, 94.810486%)" stop-opacity="1"/>
<stop offset="0.34375" stop-color="rgb(42.637634%, 78.700256%, 94.810486%)" stop-opacity="1"/>
<stop offset="0.359375" stop-color="rgb(42.637634%, 78.700256%, 94.810486%)" stop-opacity="1"/>
<stop offset="0.367188" stop-color="rgb(42.628479%, 78.778076%, 94.856262%)" stop-opacity="1"/>
<stop offset="0.375" stop-color="rgb(42.614746%, 78.916931%, 94.934082%)" stop-opacity="1"/>
<stop offset="0.40625" stop-color="rgb(42.608643%, 78.97644%, 94.969177%)" stop-opacity="1"/>
<stop offset="0.414062" stop-color="rgb(42.608643%, 78.97644%, 94.969177%)" stop-opacity="1"/>
<stop offset="0.417969" stop-color="rgb(42.59491%, 79.115295%, 95.046997%)" stop-opacity="1"/>
<stop offset="0.421875" stop-color="rgb(42.579651%, 79.252625%, 95.126343%)" stop-opacity="1"/>
<stop offset="0.4375" stop-color="rgb(42.579651%, 79.252625%, 95.126343%)" stop-opacity="1"/>
<stop offset="0.46875" stop-color="rgb(42.56897%, 79.356384%, 95.185852%)" stop-opacity="1"/>
<stop offset="0.484375" stop-color="rgb(42.567444%, 79.376221%, 95.196533%)" stop-opacity="1"/>
<stop offset="0.488281" stop-color="rgb(42.521667%, 79.058838%, 95.024109%)" stop-opacity="1"/>
<stop offset="0.492188" stop-color="rgb(42.466736%, 78.820801%, 94.897461%)" stop-opacity="1"/>
<stop offset="0.496094" stop-color="rgb(42.372131%, 78.573608%, 94.769287%)" stop-opacity="1"/>
<stop offset="0.5" stop-color="rgb(42.276001%, 78.32489%, 94.641113%)" stop-opacity="1"/>
<stop offset="0.503906" stop-color="rgb(42.312622%, 77.975464%, 94.441223%)" stop-opacity="1"/>
<stop offset="0.507812" stop-color="rgb(42.349243%, 77.624512%, 94.241333%)" stop-opacity="1"/>
<stop offset="0.511719" stop-color="rgb(42.178345%, 77.355957%, 94.108582%)" stop-opacity="1"/>
<stop offset="0.515625" stop-color="rgb(42.007446%, 77.085876%, 93.97583%)" stop-opacity="1"/>
<stop offset="0.519531" stop-color="rgb(42.030334%, 76.873779%, 93.85376%)" stop-opacity="1"/>
<stop offset="0.523438" stop-color="rgb(42.051697%, 76.661682%, 93.733215%)" stop-opacity="1"/>
<stop offset="0.527344" stop-color="rgb(42.076111%, 76.435852%, 93.603516%)" stop-opacity="1"/>
<stop offset="0.53125" stop-color="rgb(42.100525%, 76.208496%, 93.473816%)" stop-opacity="1"/>
<stop offset="0.535156" stop-color="rgb(42.010498%, 75.837708%, 93.275452%)" stop-opacity="1"/>
<stop offset="0.539063" stop-color="rgb(41.920471%, 75.468445%, 93.077087%)" stop-opacity="1"/>
<stop offset="0.542969" stop-color="rgb(41.877747%, 75.238037%, 92.951965%)" stop-opacity="1"/>
<stop offset="0.546875" stop-color="rgb(41.833496%, 75.009155%, 92.826843%)" stop-opacity="1"/>
<stop offset="0.550781" stop-color="rgb(41.867065%, 74.69635%, 92.648315%)" stop-opacity="1"/>
<stop offset="0.554688" stop-color="rgb(41.900635%, 74.383545%, 92.468262%)" stop-opacity="1"/>
<stop offset="0.558594" stop-color="rgb(41.873169%, 74.12262%, 92.324829%)" stop-opacity="1"/>
<stop offset="0.5625" stop-color="rgb(41.845703%, 73.860168%, 92.179871%)" stop-opacity="1"/>
<stop offset="0.566406" stop-color="rgb(41.731262%, 73.612976%, 92.051697%)" stop-opacity="1"/>
<stop offset="0.570312" stop-color="rgb(41.618347%, 73.364258%, 91.921997%)" stop-opacity="1"/>
<stop offset="0.574219" stop-color="rgb(41.586304%, 72.998047%, 91.719055%)" stop-opacity="1"/>
<stop offset="0.578125" stop-color="rgb(41.55426%, 72.631836%, 91.516113%)" stop-opacity="1"/>
<stop offset="0.582031" stop-color="rgb(41.45813%, 72.389221%, 91.387939%)" stop-opacity="1"/>
<stop offset="0.585937" stop-color="rgb(41.362%, 72.148132%, 91.261292%)" stop-opacity="1"/>
<stop offset="0.589844" stop-color="rgb(41.203308%, 71.824646%, 91.030884%)" stop-opacity="1"/>
<stop offset="0.59375" stop-color="rgb(41.043091%, 71.50116%, 90.79895%)" stop-opacity="1"/>
<stop offset="0.597656" stop-color="rgb(40.887451%, 71.165466%, 90.548706%)" stop-opacity="1"/>
<stop offset="0.601562" stop-color="rgb(40.730286%, 70.831299%, 90.299988%)" stop-opacity="1"/>
<stop offset="0.605469" stop-color="rgb(40.582275%, 70.440674%, 90.092468%)" stop-opacity="1"/>
<stop offset="0.609375" stop-color="rgb(40.432739%, 70.048523%, 89.884949%)" stop-opacity="1"/>
<stop offset="0.613281" stop-color="rgb(40.472412%, 69.7052%, 89.686584%)" stop-opacity="1"/>
<stop offset="0.617188" stop-color="rgb(40.513611%, 69.363403%, 89.48822%)" stop-opacity="1"/>
<stop offset="0.621094" stop-color="rgb(40.419006%, 69.125366%, 89.363098%)" stop-opacity="1"/>
<stop offset="0.625" stop-color="rgb(40.324402%, 68.888855%, 89.23645%)" stop-opacity="1"/>
<stop offset="0.628906" stop-color="rgb(40.283203%, 68.641663%, 89.100647%)" stop-opacity="1"/>
<stop offset="0.632812" stop-color="rgb(40.242004%, 68.392944%, 88.963318%)" stop-opacity="1"/>
<stop offset="0.636719" stop-color="rgb(40.278625%, 68.075562%, 88.778687%)" stop-opacity="1"/>
<stop offset="0.640625" stop-color="rgb(40.316772%, 67.756653%, 88.594055%)" stop-opacity="1"/>
<stop offset="0.644531" stop-color="rgb(40.341187%, 67.549133%, 88.475037%)" stop-opacity="1"/>
<stop offset="0.648438" stop-color="rgb(40.365601%, 67.341614%, 88.354492%)" stop-opacity="1"/>
<stop offset="0.652344" stop-color="rgb(40.242004%, 67.100525%, 88.227844%)" stop-opacity="1"/>
<stop offset="0.65625" stop-color="rgb(40.116882%, 66.856384%, 88.09967%)" stop-opacity="1"/>
<stop offset="0.660156" stop-color="rgb(40.12146%, 66.506958%, 87.901306%)" stop-opacity="1"/>
<stop offset="0.664063" stop-color="rgb(40.126038%, 66.157532%, 87.701416%)" stop-opacity="1"/>
<stop offset="0.667969" stop-color="rgb(40.150452%, 65.951538%, 87.580872%)" stop-opacity="1"/>
<stop offset="0.671875" stop-color="rgb(40.174866%, 65.745544%, 87.461853%)" stop-opacity="1"/>
<stop offset="0.675781" stop-color="rgb(40.136719%, 65.386963%, 87.260437%)" stop-opacity="1"/>
<stop offset="0.679688" stop-color="rgb(40.098572%, 65.028381%, 87.059021%)" stop-opacity="1"/>
<stop offset="0.683594" stop-color="rgb(40.0177%, 64.7995%, 86.933899%)" stop-opacity="1"/>
<stop offset="0.6875" stop-color="rgb(39.938354%, 64.569092%, 86.808777%)" stop-opacity="1"/>
<stop offset="0.691406" stop-color="rgb(39.971924%, 64.292908%, 86.64856%)" stop-opacity="1"/>
<stop offset="0.695312" stop-color="rgb(40.005493%, 64.01825%, 86.489868%)" stop-opacity="1"/>
<stop offset="0.699219" stop-color="rgb(40.026855%, 63.745117%, 86.331177%)" stop-opacity="1"/>
<stop offset="0.703125" stop-color="rgb(40.049744%, 63.471985%, 86.174011%)" stop-opacity="1"/>
<stop offset="0.707031" stop-color="rgb(39.903259%, 63.230896%, 86.047363%)" stop-opacity="1"/>
<stop offset="0.710937" stop-color="rgb(39.755249%, 62.989807%, 85.919189%)" stop-opacity="1"/>
<stop offset="0.714844" stop-color="rgb(39.756775%, 62.759399%, 85.787964%)" stop-opacity="1"/>
<stop offset="0.71875" stop-color="rgb(39.756775%, 62.527466%, 85.655212%)" stop-opacity="1"/>
<stop offset="0.722656" stop-color="rgb(39.642334%, 62.17804%, 85.462952%)" stop-opacity="1"/>
<stop offset="0.726562" stop-color="rgb(39.524841%, 61.828613%, 85.270691%)" stop-opacity="1"/>
<stop offset="0.730469" stop-color="rgb(39.550781%, 61.62262%, 85.150146%)" stop-opacity="1"/>
<stop offset="0.734375" stop-color="rgb(39.576721%, 61.418152%, 85.031128%)" stop-opacity="1"/>
<stop offset="0.738281" stop-color="rgb(39.602661%, 61.213684%, 84.912109%)" stop-opacity="1"/>
<stop offset="0.742188" stop-color="rgb(39.628601%, 61.00769%, 84.791565%)" stop-opacity="1"/>
<stop offset="0.746094" stop-color="rgb(39.489746%, 60.635376%, 84.587097%)" stop-opacity="1"/>
<stop offset="0.75" stop-color="rgb(39.350891%, 60.264587%, 84.382629%)" stop-opacity="1"/>
<stop offset="0.753906" stop-color="rgb(39.376831%, 60.06012%, 84.263611%)" stop-opacity="1"/>
<stop offset="0.757812" stop-color="rgb(39.402771%, 59.855652%, 84.144592%)" stop-opacity="1"/>
<stop offset="0.761719" stop-color="rgb(39.372253%, 59.506226%, 83.944702%)" stop-opacity="1"/>
<stop offset="0.765625" stop-color="rgb(39.341736%, 59.155273%, 83.744812%)" stop-opacity="1"/>
<stop offset="0.769531" stop-color="rgb(39.259338%, 58.935547%, 83.74176%)" stop-opacity="1"/>
<stop offset="0.773438" stop-color="rgb(39.178467%, 58.714294%, 83.737183%)" stop-opacity="1"/>
<stop offset="0.777344" stop-color="rgb(39.212036%, 58.444214%, 83.584595%)" stop-opacity="1"/>
<stop offset="0.78125" stop-color="rgb(39.247131%, 58.175659%, 83.432007%)" stop-opacity="1"/>
<stop offset="0.785156" stop-color="rgb(39.103699%, 57.875061%, 83.265686%)" stop-opacity="1"/>
<stop offset="0.789063" stop-color="rgb(38.95874%, 57.572937%, 83.099365%)" stop-opacity="1"/>
<stop offset="0.792969" stop-color="rgb(38.98468%, 57.369995%, 82.980347%)" stop-opacity="1"/>
<stop offset="0.796875" stop-color="rgb(39.012146%, 57.167053%, 82.859802%)" stop-opacity="1"/>
<stop offset="0.800781" stop-color="rgb(38.768005%, 56.565857%, 82.524109%)" stop-opacity="1"/>
<stop offset="0.804688" stop-color="rgb(38.523865%, 55.964661%, 82.18689%)" stop-opacity="1"/>
<stop offset="0.808594" stop-color="rgb(38.194275%, 55.406189%, 81.878662%)" stop-opacity="1"/>
<stop offset="0.8125" stop-color="rgb(37.864685%, 54.852295%, 81.570435%)" stop-opacity="1"/>
<stop offset="0.816406" stop-color="rgb(37.597656%, 54.176331%, 81.187439%)" stop-opacity="1"/>
<stop offset="0.820312" stop-color="rgb(37.330627%, 53.504944%, 80.804443%)" stop-opacity="1"/>
<stop offset="0.824219" stop-color="rgb(37.051392%, 52.944946%, 80.487061%)" stop-opacity="1"/>
<stop offset="0.828125" stop-color="rgb(36.773682%, 52.388%, 80.169678%)" stop-opacity="1"/>
<stop offset="0.832031" stop-color="rgb(36.515808%, 51.748657%, 79.801941%)" stop-opacity="1"/>
<stop offset="0.835937" stop-color="rgb(36.25946%, 51.112366%, 79.43573%)" stop-opacity="1"/>
<stop offset="0.839844" stop-color="rgb(35.977173%, 50.585938%, 79.13208%)" stop-opacity="1"/>
<stop offset="0.84375" stop-color="rgb(35.694885%, 50.062561%, 78.829956%)" stop-opacity="1"/>
<stop offset="0.847656" stop-color="rgb(35.441589%, 49.415588%, 78.451538%)" stop-opacity="1"/>
<stop offset="0.851562" stop-color="rgb(35.189819%, 48.773193%, 78.07312%)" stop-opacity="1"/>
<stop offset="0.855469" stop-color="rgb(34.87854%, 48.127747%, 77.694702%)" stop-opacity="1"/>
<stop offset="0.859375" stop-color="rgb(34.567261%, 47.486877%, 77.316284%)" stop-opacity="1"/>
<stop offset="0.863281" stop-color="rgb(34.356689%, 46.859741%, 76.942444%)" stop-opacity="1"/>
<stop offset="0.867188" stop-color="rgb(34.147644%, 46.235657%, 76.567078%)" stop-opacity="1"/>
<stop offset="0.871094" stop-color="rgb(33.932495%, 45.614624%, 76.194763%)" stop-opacity="1"/>
<stop offset="0.875" stop-color="rgb(33.718872%, 44.995117%, 75.820923%)" stop-opacity="1"/>
<stop offset="0.878906" stop-color="rgb(33.351135%, 44.371033%, 75.444031%)" stop-opacity="1"/>
<stop offset="0.882812" stop-color="rgb(32.98645%, 43.751526%, 75.068665%)" stop-opacity="1"/>
<stop offset="0.886719" stop-color="rgb(32.775879%, 43.200684%, 74.731445%)" stop-opacity="1"/>
<stop offset="0.890625" stop-color="rgb(32.568359%, 42.651367%, 74.394226%)" stop-opacity="1"/>
<stop offset="0.894531" stop-color="rgb(32.272339%, 41.995239%, 73.989868%)" stop-opacity="1"/>
<stop offset="0.898438" stop-color="rgb(31.97937%, 41.342163%, 73.583984%)" stop-opacity="1"/>
<stop offset="0.902344" stop-color="rgb(31.726074%, 40.748596%, 73.214722%)" stop-opacity="1"/>
<stop offset="0.90625" stop-color="rgb(31.47583%, 40.159607%, 72.845459%)" stop-opacity="1"/>
<stop offset="0.910156" stop-color="rgb(31.278992%, 39.578247%, 72.477722%)" stop-opacity="1"/>
<stop offset="0.914063" stop-color="rgb(31.085205%, 38.996887%, 72.111511%)" stop-opacity="1"/>
<stop offset="0.917969" stop-color="rgb(30.865479%, 38.421631%, 71.7453%)" stop-opacity="1"/>
<stop offset="0.921875" stop-color="rgb(30.648804%, 37.8479%, 71.379089%)" stop-opacity="1"/>
<stop offset="0.925781" stop-color="rgb(30.419922%, 37.34436%, 71.055603%)" stop-opacity="1"/>
<stop offset="0.929688" stop-color="rgb(30.194092%, 36.843872%, 70.732117%)" stop-opacity="1"/>
<stop offset="0.9375" stop-color="rgb(30.194092%, 36.843872%, 70.732117%)" stop-opacity="1"/>
<stop offset="1" stop-color="rgb(30.194092%, 36.843872%, 70.732117%)" stop-opacity="1"/>
</linearGradient>
</defs>
<g clip-path="url(#clip-0)">
<g clip-path="url(#clip-1)">
<path fill-rule="nonzero" fill="url(#linear-pattern-0)" d="M 1365.464844 -1627.300781 L -1627.300781 1939.347656 L 1939.347656 4932.109375 L 4932.109375 1365.464844 Z M 1365.464844 -1627.300781 "/>
</g>
</g>
</svg>
